<svg width="16" height="16" viewBox="0 0 16 16" fill="none" xmlns="http://www.w3.org/2000/svg">
<g clip-path="url(#clip0_1876_30303)">
<path d="M4.5 8.5C4.77614 8.5 5 8.27614 5 8C5 7.72386 4.77614 7.5 4.5 7.5C4.22386 7.5 4 7.72386 4 8C4 8.27614 4.22386 8.5 4.5 8.5Z" stroke="#1F2937" stroke-linecap="round" stroke-linejoin="round"/>
<path d="M7.75 8.5C8.02614 8.5 8.25 8.27614 8.25 8C8.25 7.72386 8.02614 7.5 7.75 7.5C7.47386 7.5 7.25 7.72386 7.25 8C7.25 8.27614 7.47386 8.5 7.75 8.5Z" stroke="#1F2937" stroke-linecap="round" stroke-linejoin="round"/>
<path d="M11 8.5C11.2761 8.5 11.5 8.27614 11.5 8C11.5 7.72386 11.2761 7.5 11 7.5C10.7239 7.5 10.5 7.72386 10.5 8C10.5 8.27614 10.7239 8.5 11 8.5Z" stroke="#1F2937" stroke-linecap="round" stroke-linejoin="round"/>
<path d="M8 1.5C6.82424 1.50037 5.6706 1.81964 4.66194 2.42381C3.65329 3.02799 2.8274 3.89444 2.27223 4.93088C1.71707 5.96732 1.45343 7.13493 1.50939 8.30936C1.56535 9.48378 1.93881 10.621 2.59 11.6L1.5 14.5L5.15 13.84C6.02891 14.2695 6.99342 14.4951 7.97165 14.4999C8.94987 14.5048 9.91657 14.2888 10.7997 13.868C11.6828 13.4472 12.4596 12.8325 13.0721 12.0698C13.6846 11.307 14.117 10.4159 14.3371 9.46271C14.5573 8.50957 14.5594 7.51903 14.3434 6.56493C14.1275 5.61083 13.6989 4.71779 13.0898 3.95237C12.4806 3.18694 11.7065 2.56889 10.8253 2.14427C9.94399 1.71965 8.97824 1.49942 8 1.5V1.5Z" stroke="#1F2937" stroke-width="1.25" stroke-linecap="round" stroke-linejoin="round"/>
</g>
<defs>
<clipPath id="clip0_1876_30303">
<rect width="16" height="16" fill="white"/>
</clipPath>
</defs>
</svg>
