<svg width="16" height="16" viewBox="0 0 16 16" fill="none" xmlns="http://www.w3.org/2000/svg">
<path d="M6 7C7.24264 7 8.25 5.99264 8.25 4.75C8.25 3.50736 7.24264 2.5 6 2.5C4.75736 2.5 3.75 3.50736 3.75 4.75C3.75 5.99264 4.75736 7 6 7Z" stroke="#1F2937" stroke-width="1.25" stroke-linecap="round" stroke-linejoin="round"/>
<path d="M10.5 14.5H1.5V13.5C1.5 12.3065 1.97411 11.1619 2.81802 10.318C3.66193 9.47411 4.80653 9 6 9C7.19347 9 8.33807 9.47411 9.18198 10.318C10.0259 11.1619 10.5 12.3065 10.5 13.5V14.5Z" stroke="#1F2937" stroke-width="1.25" stroke-linecap="round" stroke-linejoin="round"/>
<path d="M10 2.5C10.5967 2.5 11.169 2.73705 11.591 3.15901C12.0129 3.58097 12.25 4.15326 12.25 4.75C12.25 5.34674 12.0129 5.91903 11.591 6.34099C11.169 6.76295 10.5967 7 10 7" stroke="#1F2937" stroke-width="1.25" stroke-linecap="round" stroke-linejoin="round"/>
<path d="M11.6 9.19043C12.4518 9.51448 13.1852 10.0895 13.703 10.8395C14.2209 11.5895 14.4988 12.479 14.5 13.3904V14.5004H13" stroke="#1F2937" stroke-width="1.25" stroke-linecap="round" stroke-linejoin="round"/>
</svg>
