<svg width="16" height="16" viewBox="0 0 16 16" fill="none" xmlns="http://www.w3.org/2000/svg">
<path d="M13.84 13.0699L2.17 8.99993C1.97959 8.9335 1.81371 8.81104 1.69414 8.64864C1.57457 8.48624 1.50689 8.29148 1.5 8.08993V6.99993C1.50082 6.79321 1.56569 6.59183 1.68567 6.42349C1.80566 6.25516 1.97486 6.12814 2.17 6.05993L13.84 1.99993C13.9149 1.97462 13.9948 1.96744 14.073 1.97899C14.1513 1.99054 14.2256 2.02048 14.29 2.06635C14.3545 2.11222 14.4071 2.17272 14.4436 2.24288C14.4801 2.31304 14.4994 2.39085 14.5 2.46993V12.5999C14.4994 12.679 14.4801 12.7568 14.4436 12.827C14.4071 12.8971 14.3545 12.9576 14.29 13.0035C14.2256 13.0494 14.1513 13.0793 14.073 13.0909C13.9948 13.1024 13.9149 13.0952 13.84 13.0699Z" stroke="#1F2937" stroke-width="1.25" stroke-linecap="round" stroke-linejoin="round"/>
<path d="M9.48 11.5702C9.39581 12.2648 9.05 12.9012 8.513 13.3498C7.976 13.7984 7.28819 14.0254 6.58967 13.9846C5.89114 13.9438 5.23444 13.6383 4.7533 13.1302C4.27216 12.6222 4.00277 11.9499 4 11.2502V9.66016" stroke="#1F2937" stroke-width="1.25" stroke-linecap="round" stroke-linejoin="round"/>
</svg>
