<svg width="125" height="24" viewBox="0 0 125 24" fill="none" xmlns="http://www.w3.org/2000/svg">
<path d="M117.33 7.3235C117.33 9.39389 118.487 11.4317 120.753 12.2794L119.743 13.6814C118.169 13.0619 117.045 11.8311 116.433 10.3068C115.797 11.937 114.607 13.2331 112.912 13.8933L111.934 12.4587C114.281 11.611 115.488 9.5243 115.504 7.3235V5.56286H117.33V7.3235ZM124.307 4.73145V15.6702H122.498V11.1056H119.808V9.65472H122.498V8.20382H119.808V6.73662H122.498V4.73145H124.307ZM124.633 17.6917V19.1589H114.591V14.5943H116.433V17.6917H124.633Z" fill="#030712"/>
<path d="M109.924 5.22021V9.40989H101.463V10.8771H110.25V12.328H99.6374V8.0405H108.066V6.68742H99.6048V5.22021H109.924ZM111.489 13.5833V15.0342H105.637V19.4684H103.827V15.0342H98.0234V13.5833H111.489Z" fill="#030712"/>
<path d="M91.71 9.1658V10.8775H97.5462V12.3284H84.1132V10.8775H89.9168V9.1658H91.71ZM91.7263 5.23696C91.7263 6.91609 93.6663 8.31808 96.8126 8.62782L96.1768 10.0135C93.707 9.70377 91.7508 8.77454 90.8134 7.33995C89.8515 8.77454 87.9034 9.70377 85.4336 10.0135L84.7978 8.62782C87.9442 8.31808 89.8842 6.91609 89.8842 5.23696V4.8457H91.7263V5.23696ZM95.8671 13.2251V16.8768H87.4877V17.9364H96.2746V19.3221H85.7108V15.5889H94.0901V14.6107H85.6945V13.2251H95.8671Z" fill="#030712"/>
<path d="M82.462 4.71533V19.4689H80.6688V4.71533H82.462ZM77.93 6.00321V11.5297H72.86V14.4967C75.1831 14.4804 77.1882 14.3663 79.4787 13.975L79.6417 15.4585C77.1312 15.8987 74.9304 15.9802 72.2894 15.9802H71.0015V10.0951H76.0878V7.47041H70.9852V6.00321H77.93Z" fill="#030712"/>
<path d="M64.4923 5.80758V6.6879C64.476 7.69864 64.476 9.14954 64.1337 11.0243L62.3404 10.8613C62.6257 9.33702 62.6828 8.21216 62.7154 7.30739H56.977V5.80758H64.4923ZM60.7754 9.16584V12.1002C62.2997 12.0432 63.8647 11.9291 65.2911 11.7253L65.389 13.0295C62.3241 13.5838 58.8518 13.6327 56.2597 13.649L56.0967 12.1981C56.9688 12.1899 57.947 12.1818 58.9822 12.1655V9.16584H60.7754ZM68.0136 4.71533V9.31256H69.921V10.8287H68.0136V15.7519H66.1552V4.71533H68.0136ZM68.4864 17.6919V19.1591H58.2975V14.7738H60.1233V17.6919H68.4864Z" fill="#030712"/>
<path d="M53.9566 4.71519V8.35059H56.0106V9.8504H53.9566V13.3228H52.147V4.71519H53.9566ZM46.2293 13.9097V15.1812H52.147V13.9097H53.9566V19.2731H44.4361V13.9097H46.2293ZM46.2293 17.8385H52.147V16.5832H46.2293V17.8385ZM51.0874 6.08458V7.53548H42.3494V6.08458H45.8217V4.60107H47.6313V6.08458H51.0874ZM46.7184 8.04085C48.854 8.04085 50.3049 9.06789 50.3212 10.6329C50.3049 12.1979 48.854 13.225 46.7184 13.225C44.5665 13.225 43.0993 12.1979 43.0993 10.6329C43.0993 9.06789 44.5665 8.04085 46.7184 8.04085ZM46.7184 9.37763C45.5935 9.37763 44.8599 9.8504 44.8599 10.6329C44.8599 11.4317 45.5935 11.8882 46.7184 11.8882C47.8432 11.8882 48.5931 11.4317 48.5931 10.6329C48.5931 9.8504 47.8432 9.37763 46.7184 9.37763Z" fill="#030712"/>
<path d="M41.8394 12.3772V13.8118H28.3738V12.3772H34.1937V11.285H30.1018V5.10645H40.2255V6.50844H31.9114V7.51918H39.8669V8.85596H31.9114V9.8993H40.3396V11.285H36.0032V12.3772H41.8394ZM35.1066 14.627C38.3508 14.627 40.1929 15.491 40.2092 17.0234C40.1929 18.6047 38.3508 19.4361 35.1066 19.4361C31.8136 19.4361 29.9714 18.6047 29.9714 17.0234C29.9714 15.491 31.8136 14.627 35.1066 14.627ZM35.1066 15.98C32.8895 15.98 31.7809 16.3224 31.7809 17.0234C31.7809 17.7407 32.8895 18.083 35.1066 18.083C37.2911 18.083 38.3834 17.7407 38.3997 17.0234C38.3834 16.3224 37.2911 15.98 35.1066 15.98Z" fill="#030712"/>
<path d="M8.42176 1.03144C9.89127 0.348762 11.5807 0.348762 13.0502 1.03143C14.1079 1.52277 15.3313 2.12101 16.2707 2.66667C17.115 3.15713 18.118 3.83057 18.9936 4.44381C20.3766 5.41247 21.2323 6.95761 21.3401 8.64263C21.4104 9.74047 21.472 10.991 21.472 12C21.472 13.009 21.4104 14.2595 21.3401 15.3574C21.2323 17.0424 20.3766 18.5875 18.9936 19.5562C18.118 20.1694 17.115 20.8429 16.2707 21.3333C15.3313 21.879 14.1079 22.4772 13.0502 22.9686C11.5807 23.6512 9.89127 23.6512 8.42176 22.9686C7.36412 22.4772 6.1407 21.879 5.20133 21.3333C4.35698 20.8429 3.35396 20.1694 2.47842 19.5562C1.09544 18.5875 0.239704 17.0424 0.131874 15.3574C0.0616211 14.2595 0 13.009 0 12C0 10.991 0.0616211 9.74047 0.131874 8.64263C0.239704 6.95761 1.09544 5.41247 2.47842 4.44381C3.35396 3.83057 4.35698 3.15713 5.20133 2.66667C6.1407 2.12101 7.36412 1.52277 8.42176 1.03144Z" fill="#D9D9D9"/>
<path d="M8.42176 1.03144C9.89127 0.348762 11.5807 0.348762 13.0502 1.03143C14.1079 1.52277 15.3313 2.12101 16.2707 2.66667C17.115 3.15713 18.118 3.83057 18.9936 4.44381C20.3766 5.41247 21.2323 6.95761 21.3401 8.64263C21.4104 9.74047 21.472 10.991 21.472 12C21.472 13.009 21.4104 14.2595 21.3401 15.3574C21.2323 17.0424 20.3766 18.5875 18.9936 19.5562C18.118 20.1694 17.115 20.8429 16.2707 21.3333C15.3313 21.879 14.1079 22.4772 13.0502 22.9686C11.5807 23.6512 9.89127 23.6512 8.42176 22.9686C7.36412 22.4772 6.1407 21.879 5.20133 21.3333C4.35698 20.8429 3.35396 20.1694 2.47842 19.5562C1.09544 18.5875 0.239704 17.0424 0.131874 15.3574C0.0616211 14.2595 0 13.009 0 12C0 10.991 0.0616211 9.74047 0.131874 8.64263C0.239704 6.95761 1.09544 5.41247 2.47842 4.44381C3.35396 3.83057 4.35698 3.15713 5.20133 2.66667C6.1407 2.12101 7.36412 1.52277 8.42176 1.03144Z" fill="black"/>
<path d="M8.17802 3.23521C9.76118 2.32208 11.711 2.32208 13.2942 3.23521L17.0512 5.40213C18.6364 6.31645 19.6131 8.00731 19.6131 9.83731V14.1623C19.6131 15.9923 18.6364 17.6832 17.0512 18.5975L13.2942 20.7644C11.711 21.6775 9.76118 21.6775 8.17802 20.7644L4.42105 18.5975C2.83584 17.6832 1.85913 15.9923 1.85913 14.1623L1.85913 9.83731C1.85913 8.00731 2.83584 6.31645 4.42106 5.40213L8.17802 3.23521Z" fill="#D9D9D9"/>
<path d="M8.17802 3.23521C9.76118 2.32208 11.711 2.32208 13.2942 3.23521L17.0512 5.40213C18.6364 6.31645 19.6131 8.00731 19.6131 9.83731V14.1623C19.6131 15.9923 18.6364 17.6832 17.0512 18.5975L13.2942 20.7644C11.711 21.6775 9.76118 21.6775 8.17802 20.7644L4.42105 18.5975C2.83584 17.6832 1.85913 15.9923 1.85913 14.1623L1.85913 9.83731C1.85913 8.00731 2.83584 6.31645 4.42106 5.40213L8.17802 3.23521Z" fill="url(#paint0_linear_1808_1594)"/>
<path d="M8.75525 5.21283C9.98119 4.50574 11.4911 4.50574 12.717 5.21283L15.6262 6.8908C16.8538 7.59881 17.6101 8.90814 17.6101 10.3252V13.6743C17.6101 15.0914 16.8538 16.4007 15.6262 17.1087L12.717 18.7867C11.4911 19.4938 9.98119 19.4938 8.75525 18.7867L5.84602 17.1087C4.6185 16.4007 3.86218 15.0914 3.86218 13.6743V10.3252C3.86218 8.90814 4.6185 7.59881 5.84603 6.8908L8.75525 5.21283Z" fill="black"/>
<defs>
<linearGradient id="paint0_linear_1808_1594" x1="10.7361" y1="1.53351" x2="15.1315" y2="24.8613" gradientUnits="userSpaceOnUse">
<stop stop-color="#529DFF"/>
<stop offset="0.444262" stop-color="white"/>
<stop offset="1" stop-color="#FF4233"/>
</linearGradient>
</defs>
</svg>
