<svg width="16" height="16" viewBox="0 0 16 16" fill="none" xmlns="http://www.w3.org/2000/svg">
<path d="M4.39375 8.70645C4.7838 8.70645 5.1 8.39025 5.1 8.0002C5.1 7.61014 4.7838 7.29395 4.39375 7.29395C4.0037 7.29395 3.6875 7.61014 3.6875 8.0002C3.6875 8.39025 4.0037 8.70645 4.39375 8.70645Z" fill="#374151"/>
<path d="M7.99995 8.70645C8.39 8.70645 8.7062 8.39025 8.7062 8.0002C8.7062 7.61014 8.39 7.29395 7.99995 7.29395C7.6099 7.29395 7.2937 7.61014 7.2937 8.0002C7.2937 8.39025 7.6099 8.70645 7.99995 8.70645Z" fill="#374151"/>
<path d="M11.6063 8.70645C11.9963 8.70645 12.3125 8.39025 12.3125 8.0002C12.3125 7.61014 11.9963 7.29395 11.6063 7.29395C11.2162 7.29395 10.9 7.61014 10.9 8.0002C10.9 8.39025 11.2162 8.70645 11.6063 8.70645Z" fill="#374151"/>
</svg>
