<svg width="16" height="16" viewBox="0 0 16 16" fill="none" xmlns="http://www.w3.org/2000/svg">
<g clip-path="url(#clip0_1876_30663)">
<path d="M1.5 14.5H12.5" stroke="#1F2937" stroke-width="1.25" stroke-linecap="round" stroke-linejoin="round"/>
<path d="M7.5 10.9999L4.5 11.5399L5 8.49994L11.73 1.78994C11.823 1.69621 11.9336 1.62182 12.0554 1.57105C12.1773 1.52028 12.308 1.49414 12.44 1.49414C12.572 1.49414 12.7027 1.52028 12.8246 1.57105C12.9464 1.62182 13.057 1.69621 13.15 1.78994L14.21 2.84994C14.3037 2.9429 14.3781 3.0535 14.4289 3.17536C14.4797 3.29722 14.5058 3.42793 14.5058 3.55994C14.5058 3.69195 14.4797 3.82266 14.4289 3.94452C14.3781 4.06637 14.3037 4.17698 14.21 4.26994L7.5 10.9999Z" stroke="#1F2937" stroke-width="1.25" stroke-linecap="round" stroke-linejoin="round"/>
</g>
<defs>
<clipPath id="clip0_1876_30663">
<rect width="16" height="16" fill="white"/>
</clipPath>
</defs>
</svg>
