<svg width="20" height="20" viewBox="0 0 20 20" fill="none" xmlns="http://www.w3.org/2000/svg">
<g clip-path="url(#clip0_1804_383)">
<path d="M16.875 18.1748H5C4.50272 18.1748 4.02581 17.9773 3.67417 17.6256C3.32254 17.274 3.125 16.7971 3.125 16.2998C3.125 15.8025 3.32254 15.3256 3.67417 14.974C4.02581 14.6223 4.50272 14.4248 5 14.4248H15.625C15.9565 14.4248 16.2745 14.2931 16.5089 14.0587C16.7433 13.8243 16.875 13.5063 16.875 13.1748V3.1748C16.875 2.84328 16.7433 2.52534 16.5089 2.29092C16.2745 2.0565 15.9565 1.9248 15.625 1.9248H5C4.51126 1.92463 4.04177 2.1153 3.69154 2.45619C3.34132 2.79707 3.13803 3.26124 3.125 3.7498V16.2498" stroke="#4B5563" stroke-width="1.25" stroke-linecap="round" stroke-linejoin="round"/>
<path d="M15.625 14.4248V18.1748" stroke="#4B5563" stroke-width="1.25" stroke-linecap="round" stroke-linejoin="round"/>
</g>
<defs>
<clipPath id="clip0_1804_383">
<rect width="17.5" height="17.5" fill="white" transform="translate(1.25 1.25)"/>
</clipPath>
</defs>
</svg>
