<svg width="24" height="24" viewBox="0 0 24 24" fill="none" xmlns="http://www.w3.org/2000/svg">
<path d="M11.7848 5C12.4239 5.01038 12.9162 5.34679 13.2087 5.83105C13.4707 6.26504 13.5613 6.79028 13.5827 7.27246C13.6133 7.96364 13.5069 8.7785 13.3112 9.61816C13.6532 9.5898 13.9235 9.54245 14.1715 9.48242C14.6893 9.35712 15.033 9.21083 15.6315 8.92969L16.2975 10.4619C15.7757 10.7058 15.2593 10.9367 14.5661 11.1045C14.0597 11.227 13.5224 11.2997 12.8073 11.3125C12.445 12.3206 11.973 13.3294 11.4225 14.1855C10.9973 14.847 10.4784 15.4927 9.8737 15.9541C10.0361 16.1783 10.2094 16.3632 10.3571 16.4756C10.6392 16.6903 10.8537 16.8629 11.1569 16.9834C11.4346 17.0937 11.7737 17.1711 12.3649 17.0615C12.7384 16.9922 13.5817 16.6221 13.9401 15.8066L15.6706 16.5625C14.9761 18.1431 13.457 18.7765 12.7096 18.915C11.7755 19.0881 11.0742 18.9791 10.4577 18.7344C9.86734 18.4999 9.44121 18.1492 9.21061 17.9736C8.51302 17.4427 7.74791 16.3673 7.49772 15.249C7.11425 13.5343 7.41545 11.0753 8.07389 9.08105C8.40682 8.07275 8.85521 7.10797 9.41373 6.375C9.95295 5.6675 10.7362 5 11.7546 5H11.7848ZM9.55534 10.79C9.29437 11.9097 9.17866 13.0497 9.23014 13.9756C9.45898 13.7742 9.67954 13.5155 9.88541 13.1953C10.263 12.608 10.6076 11.9145 10.8971 11.1924C10.385 11.1021 9.93537 10.9628 9.55534 10.79ZM11.7409 7.25684C11.7251 7.07697 11.4882 6.95562 11.3454 7.06641C11.2227 7.16189 11.0793 7.30478 10.9186 7.51562C10.6062 7.92568 10.3075 8.49528 10.0485 9.16992C10.339 9.33619 10.8 9.50443 11.4323 9.58594C11.6636 8.71654 11.7733 7.94034 11.7487 7.38281C11.7467 7.33789 11.7443 7.29567 11.7409 7.25684Z" fill="#EE5347"/>
</svg>
