<svg width="20" height="20" viewBox="0 0 20 20" fill="none" xmlns="http://www.w3.org/2000/svg">
<g clip-path="url(#clip0_1804_419)">
<path d="M3.125 8.75H4.375C4.54076 8.75 4.69973 8.81585 4.81694 8.93306C4.93415 9.05027 5 9.20924 5 9.375V12.5C5 12.6658 4.93415 12.8247 4.81694 12.9419C4.69973 13.0592 4.54076 13.125 4.375 13.125H3.125C2.79348 13.125 2.47554 12.9933 2.24112 12.7589C2.0067 12.5245 1.875 12.2065 1.875 11.875V10C1.875 9.66848 2.0067 9.35054 2.24112 9.11612C2.47554 8.8817 2.79348 8.75 3.125 8.75V8.75Z" stroke="#4B5563" stroke-width="1.25" stroke-linecap="round" stroke-linejoin="round"/>
<path d="M16.875 13.125H15.625C15.4592 13.125 15.3003 13.0592 15.1831 12.9419C15.0658 12.8247 15 12.6658 15 12.5V9.375C15 9.20924 15.0658 9.05027 15.1831 8.93306C15.3003 8.81585 15.4592 8.75 15.625 8.75H16.875C17.2065 8.75 17.5245 8.8817 17.7589 9.11612C17.9933 9.35054 18.125 9.66848 18.125 10V11.875C18.125 12.2065 17.9933 12.5245 17.7589 12.7589C17.5245 12.9933 17.2065 13.125 16.875 13.125V13.125Z" stroke="#4B5563" stroke-width="1.25" stroke-linecap="round" stroke-linejoin="round"/>
<path d="M13.125 16.5625C13.788 16.5625 14.4239 16.2991 14.8928 15.8303C15.3616 15.3614 15.625 14.7255 15.625 14.0625V13.125" stroke="#4B5563" stroke-width="1.25" stroke-linecap="round" stroke-linejoin="round"/>
<path d="M11.5625 15C11.9769 15 12.3743 15.1646 12.6674 15.4576C12.9604 15.7507 13.125 16.1481 13.125 16.5625C13.125 16.9769 12.9604 17.3743 12.6674 17.6674C12.3743 17.9604 11.9769 18.125 11.5625 18.125H9.6875C9.2731 18.125 8.87567 17.9604 8.58265 17.6674C8.28962 17.3743 8.125 16.9769 8.125 16.5625C8.125 16.1481 8.28962 15.7507 8.58265 15.4576C8.87567 15.1646 9.2731 15 9.6875 15H11.5625Z" stroke="#4B5563" stroke-width="1.25" stroke-linecap="round" stroke-linejoin="round"/>
<path d="M4.375 8.75V7.5C4.375 6.00816 4.96763 4.57742 6.02252 3.52252C7.07742 2.46763 8.50816 1.875 10 1.875C11.4918 1.875 12.9226 2.46763 13.9775 3.52252C15.0324 4.57742 15.625 6.00816 15.625 7.5V8.75" stroke="#4B5563" stroke-width="1.25" stroke-linecap="round" stroke-linejoin="round"/>
<path d="M8.125 6.25V8.125" stroke="#4B5563" stroke-width="1.25" stroke-linecap="round" stroke-linejoin="round"/>
<path d="M11.875 6.25V8.125" stroke="#4B5563" stroke-width="1.25" stroke-linecap="round" stroke-linejoin="round"/>
<path d="M8.125 10.625C8.125 12.2875 11.875 12.2875 11.875 10.625" stroke="#4B5563" stroke-width="1.25" stroke-linecap="round" stroke-linejoin="round"/>
</g>
<defs>
<clipPath id="clip0_1804_419">
<rect width="17.5" height="17.5" fill="white" transform="translate(1.25 1.25)"/>
</clipPath>
</defs>
</svg>
