<svg width="16" height="16" viewBox="0 0 16 16" fill="none" xmlns="http://www.w3.org/2000/svg">
<path d="M12.5 6C12.5 8.49 8 14.5 8 14.5C8 14.5 3.5 8.49 3.5 6C3.5 4.80653 3.97411 3.66193 4.81802 2.81802C5.66193 1.97411 6.80653 1.5 8 1.5C9.19347 1.5 10.3381 1.97411 11.182 2.81802C12.0259 3.66193 12.5 4.80653 12.5 6V6Z" stroke="#1F2937" stroke-width="1.25" stroke-linecap="round" stroke-linejoin="round"/>
<path d="M8 7.5C8.82843 7.5 9.5 6.82843 9.5 6C9.5 5.17157 8.82843 4.5 8 4.5C7.17157 4.5 6.5 5.17157 6.5 6C6.5 6.82843 7.17157 7.5 8 7.5Z" stroke="#1F2937" stroke-width="1.25" stroke-linecap="round" stroke-linejoin="round"/>
</svg>
