<svg width="16" height="16" viewBox="0 0 16 16" fill="none" xmlns="http://www.w3.org/2000/svg">
<g clip-path="url(#clip0_1905_2194)">
<path d="M8 6V9.5" stroke="#F59E0B" stroke-width="1.25" stroke-linecap="round" stroke-linejoin="round"/>
<path d="M8.02539 12.75C8.37057 12.75 8.65039 12.4702 8.65039 12.125C8.65039 11.7798 8.37057 11.5 8.02539 11.5C7.68021 11.5 7.40039 11.7798 7.40039 12.125C7.40039 12.4702 7.68021 12.75 8.02539 12.75Z" fill="#F59E0B"/>
<path d="M8.8899 2.0499C8.80599 1.8861 8.67849 1.74863 8.52146 1.65264C8.36443 1.55665 8.18395 1.50586 7.9999 1.50586C7.81586 1.50586 7.63538 1.55665 7.47835 1.65264C7.32132 1.74863 7.19382 1.8861 7.1099 2.0499L1.6099 13.0499C1.53319 13.2021 1.49667 13.3714 1.50381 13.5418C1.51094 13.7121 1.56149 13.8777 1.65067 14.023C1.73984 14.1683 1.86467 14.2884 2.0133 14.3718C2.16194 14.4553 2.32944 14.4994 2.4999 14.4999H13.4999C13.6704 14.4994 13.8379 14.4553 13.9865 14.3718C14.1351 14.2884 14.26 14.1683 14.3491 14.023C14.4383 13.8777 14.4889 13.7121 14.496 13.5418C14.5031 13.3714 14.4666 13.2021 14.3899 13.0499L8.8899 2.0499Z" stroke="#F59E0B" stroke-width="1.25" stroke-linecap="round" stroke-linejoin="round"/>
</g>
<defs>
<clipPath id="clip0_1905_2194">
<rect width="16" height="16" fill="white"/>
</clipPath>
</defs>
</svg>
