<svg width="16" height="16" viewBox="0 0 16 16" fill="none" xmlns="http://www.w3.org/2000/svg">
<g clip-path="url(#clip0_1907_3379)">
<path d="M6.25 9.25H2C1.72386 9.25 1.5 9.47386 1.5 9.75V14C1.5 14.2761 1.72386 14.5 2 14.5H6.25C6.52614 14.5 6.75 14.2761 6.75 14V9.75C6.75 9.47386 6.52614 9.25 6.25 9.25Z" stroke="#1F2937" stroke-width="1.25" stroke-linecap="round" stroke-linejoin="round"/>
<path d="M14 9.25H9.75C9.47386 9.25 9.25 9.47386 9.25 9.75V14C9.25 14.2761 9.47386 14.5 9.75 14.5H14C14.2761 14.5 14.5 14.2761 14.5 14V9.75C14.5 9.47386 14.2761 9.25 14 9.25Z" stroke="#1F2937" stroke-width="1.25" stroke-linecap="round" stroke-linejoin="round"/>
<path d="M10.1299 1.5H5.87988C5.60374 1.5 5.37988 1.72386 5.37988 2V6.25C5.37988 6.52614 5.60374 6.75 5.87988 6.75H10.1299C10.406 6.75 10.6299 6.52614 10.6299 6.25V2C10.6299 1.72386 10.406 1.5 10.1299 1.5Z" stroke="#1F2937" stroke-width="1.25" stroke-linecap="round" stroke-linejoin="round"/>
</g>
<defs>
<clipPath id="clip0_1907_3379">
<rect width="16" height="16" fill="white"/>
</clipPath>
</defs>
</svg>
