<svg width="20" height="20" viewBox="0 0 20 20" fill="none" xmlns="http://www.w3.org/2000/svg">
<g clip-path="url(#clip0_1804_446)">
<path d="M7.78755 4.0625L8.32505 2.675C8.4157 2.44008 8.57518 2.23801 8.78261 2.09527C8.99004 1.95252 9.23575 1.87574 9.48755 1.875H10.5126C10.7644 1.87574 11.0101 1.95252 11.2175 2.09527C11.4249 2.23801 11.5844 2.44008 11.6751 2.675L12.2126 4.0625L14.0376 5.1125L15.5126 4.8875C15.7582 4.85416 16.0081 4.89459 16.2307 5.00365C16.4533 5.11271 16.6384 5.28548 16.7626 5.5L17.2626 6.375C17.3907 6.59294 17.4497 6.8446 17.4319 7.09678C17.414 7.34895 17.3201 7.58979 17.1626 7.7875L16.2501 8.95V11.05L17.1876 12.2125C17.3451 12.4102 17.439 12.651 17.4569 12.9032C17.4747 13.1554 17.4157 13.4071 17.2876 13.625L16.7876 14.5C16.6634 14.7145 16.4783 14.8873 16.2557 14.9963C16.0331 15.1054 15.7832 15.1458 15.5376 15.1125L14.0626 14.8875L12.2376 15.9375L11.7001 17.325C11.6094 17.5599 11.4499 17.762 11.2425 17.9047C11.0351 18.0475 10.7894 18.1243 10.5376 18.125H9.48755C9.23575 18.1243 8.99004 18.0475 8.78261 17.9047C8.57518 17.762 8.4157 17.5599 8.32505 17.325L7.78755 15.9375L5.96255 14.8875L4.48755 15.1125C4.24195 15.1458 3.99198 15.1054 3.76941 14.9963C3.54683 14.8873 3.36171 14.7145 3.23755 14.5L2.73755 13.625C2.60943 13.4071 2.5504 13.1554 2.56825 12.9032C2.58611 12.651 2.68 12.4102 2.83755 12.2125L3.75005 11.05V8.95L2.81255 7.7875C2.655 7.58979 2.56111 7.34895 2.54325 7.09678C2.5254 6.8446 2.58443 6.59294 2.71255 6.375L3.21255 5.5C3.33671 5.28548 3.52183 5.11271 3.74441 5.00365C3.96698 4.89459 4.21695 4.85416 4.46255 4.8875L5.93755 5.1125L7.78755 4.0625ZM7.50005 10C7.50005 10.4945 7.64668 10.9778 7.92138 11.3889C8.19608 11.8 8.58653 12.1205 9.04334 12.3097C9.50016 12.4989 10.0028 12.5484 10.4878 12.452C10.9727 12.3555 11.4182 12.1174 11.7678 11.7678C12.1175 11.4181 12.3556 10.9727 12.452 10.4877C12.5485 10.0028 12.499 9.50011 12.3098 9.04329C12.1205 8.58648 11.8001 8.19603 11.389 7.92133C10.9779 7.64662 10.4945 7.5 10.0001 7.5C9.33701 7.5 8.70113 7.76339 8.23229 8.23223C7.76344 8.70107 7.50005 9.33696 7.50005 10V10Z" stroke="#4B5563" stroke-width="1.25" stroke-linecap="round" stroke-linejoin="round"/>
</g>
<defs>
<clipPath id="clip0_1804_446">
<rect width="17.5" height="17.5" fill="white" transform="translate(1.25 1.25)"/>
</clipPath>
</defs>
</svg>
