<svg width="16" height="16" viewBox="0 0 16 16" fill="none" xmlns="http://www.w3.org/2000/svg">
<g clip-path="url(#clip0_1876_30655)">
<path d="M3.49976 10C4.60433 10 5.49976 9.10457 5.49976 8C5.49976 6.89543 4.60433 6 3.49976 6C2.39519 6 1.49976 6.89543 1.49976 8C1.49976 9.10457 2.39519 10 3.49976 10Z" stroke="#1F2937" stroke-width="1.25" stroke-linecap="round" stroke-linejoin="round"/>
<path d="M12.4998 5.5C13.6044 5.5 14.4998 4.60457 14.4998 3.5C14.4998 2.39543 13.6044 1.5 12.4998 1.5C11.3953 1.5 10.4998 2.39543 10.4998 3.5C10.4998 4.60457 11.3953 5.5 12.4998 5.5Z" stroke="#1F2937" stroke-width="1.25" stroke-linecap="round" stroke-linejoin="round"/>
<path d="M12.4998 14.5C13.6044 14.5 14.4998 13.6046 14.4998 12.5C14.4998 11.3954 13.6044 10.5 12.4998 10.5C11.3953 10.5 10.4998 11.3954 10.4998 12.5C10.4998 13.6046 11.3953 14.5 12.4998 14.5Z" stroke="#1F2937" stroke-width="1.25" stroke-linecap="round" stroke-linejoin="round"/>
<path d="M4.7098 6.40949L10.5598 3.97949" stroke="#1F2937" stroke-width="1.25" stroke-linecap="round" stroke-linejoin="round"/>
<path d="M4.7098 9.58984L10.5598 12.0198" stroke="#1F2937" stroke-width="1.25" stroke-linecap="round" stroke-linejoin="round"/>
</g>
<defs>
<clipPath id="clip0_1876_30655">
<rect width="16" height="16" fill="white"/>
</clipPath>
</defs>
</svg>
