<svg width="24" height="24" viewBox="0 0 24 24" fill="none" xmlns="http://www.w3.org/2000/svg">
<path d="M17.8237 15.3945H6.2168C5.55692 15.3945 5.02197 15.9285 5.02197 16.5872V17.744C5.02197 18.4027 5.55692 18.9367 6.2168 18.9367H17.8237C18.4836 18.9367 19.0186 18.4027 19.0186 17.744V16.5872C19.0186 15.9285 18.4836 15.3945 17.8237 15.3945Z" fill="#F3BDD6"/>
<path d="M5.02173 6.22101V13.2157C5.02173 13.8744 5.55667 14.4084 6.21656 14.4084H7.37546C8.03534 14.4084 8.57029 13.8744 8.57029 13.2157V6.22101C8.57029 5.5623 8.03534 5.02832 7.37546 5.02832H6.21656C5.55667 5.02832 5.02173 5.5623 5.02173 6.22101Z" fill="#4BD6A1"/>
<path d="M10.6488 5.02832C15.2664 5.02832 19.0216 8.77675 19.0216 13.3861C19.0216 13.951 18.5634 14.4084 17.9974 14.4084H10.6488C10.0828 14.4084 9.62463 13.951 9.62463 13.3861V6.05062C9.63362 5.49463 10.0918 5.02832 10.6488 5.02832Z" fill="#358BFC"/>
</svg>
