<svg width="16" height="16" viewBox="0 0 16 16" fill="none" xmlns="http://www.w3.org/2000/svg">
<path d="M8.49003 2.09041L10.08 5.30041C10.1162 5.38188 10.1731 5.45246 10.245 5.50509C10.317 5.55773 10.4014 5.59059 10.49 5.60041L14 6.12041C14.1017 6.13347 14.1975 6.17518 14.2763 6.24066C14.3551 6.30615 14.4137 6.3927 14.4451 6.49022C14.4766 6.58774 14.4796 6.69219 14.4539 6.79139C14.4283 6.89058 14.3749 6.98042 14.3 7.05041L11.77 9.56041C11.7055 9.62074 11.657 9.69625 11.6291 9.78008C11.6011 9.86391 11.5946 9.9534 11.61 10.0404L12.22 13.5704C12.2377 13.6718 12.2265 13.7762 12.1878 13.8716C12.1491 13.967 12.0844 14.0496 12.001 14.11C11.9177 14.1705 11.819 14.2063 11.7163 14.2134C11.6136 14.2206 11.5109 14.1987 11.42 14.1504L8.26003 12.4804C8.17912 12.4407 8.09017 12.42 8.00003 12.42C7.90989 12.42 7.82095 12.4407 7.74003 12.4804L4.58003 14.1504C4.48912 14.1987 4.38647 14.2206 4.28376 14.2134C4.18105 14.2063 4.0824 14.1705 3.99905 14.11C3.91569 14.0496 3.85097 13.967 3.81225 13.8716C3.77354 13.7762 3.76237 13.6718 3.78003 13.5704L4.39003 10.0004C4.40549 9.9134 4.39895 9.82391 4.37101 9.74008C4.34307 9.65625 4.2946 9.58074 4.23003 9.52041L1.67003 7.05041C1.5943 6.9785 1.54103 6.88618 1.5167 6.78462C1.49236 6.68306 1.498 6.57663 1.53292 6.47821C1.56784 6.37979 1.63056 6.2936 1.71346 6.2301C1.79637 6.16659 1.89591 6.12849 2.00003 6.12041L5.51003 5.60041C5.59863 5.59059 5.68311 5.55773 5.75505 5.50509C5.82699 5.45246 5.88387 5.38188 5.92003 5.30041L7.51003 2.09041C7.55333 1.99692 7.62247 1.91776 7.7093 1.86229C7.79612 1.80682 7.897 1.77734 8.00003 1.77734C8.10306 1.77734 8.20395 1.80682 8.29077 1.86229C8.37759 1.91776 8.44673 1.99692 8.49003 2.09041V2.09041Z" fill="#F59E0B" stroke="#F59E0B" stroke-width="1.25" stroke-linecap="round" stroke-linejoin="round"/>
</svg>
