<svg width="20" height="20" viewBox="0 0 20 20" fill="none" xmlns="http://www.w3.org/2000/svg">
<g clip-path="url(#clip0_1804_394)">
<path d="M10 11.25C11.7259 11.25 13.125 9.85089 13.125 8.125C13.125 6.39911 11.7259 5 10 5C8.27411 5 6.875 6.39911 6.875 8.125C6.875 9.85089 8.27411 11.25 10 11.25Z" stroke="#4B5563" stroke-width="1.25" stroke-linecap="round" stroke-linejoin="round"/>
<path d="M4.66248 16.1252C5.22028 15.2096 6.00424 14.4529 6.93898 13.9278C7.87373 13.4028 8.92784 13.127 9.99998 13.127C11.0721 13.127 12.1262 13.4028 13.061 13.9278C13.9957 14.4529 14.7797 15.2096 15.3375 16.1252" stroke="#4B5563" stroke-width="1.25" stroke-linecap="round" stroke-linejoin="round"/>
<path d="M10 18.125C14.4873 18.125 18.125 14.4873 18.125 10C18.125 5.51269 14.4873 1.875 10 1.875C5.51269 1.875 1.875 5.51269 1.875 10C1.875 14.4873 5.51269 18.125 10 18.125Z" stroke="#4B5563" stroke-width="1.25" stroke-linecap="round" stroke-linejoin="round"/>
</g>
<defs>
<clipPath id="clip0_1804_394">
<rect width="17.5" height="17.5" fill="white" transform="translate(1.25 1.25)"/>
</clipPath>
</defs>
</svg>
